<svg xmlns="http://www.w3.org/2000/svg" xmlns:xlink="http://www.w3.org/1999/xlink" id="Layer_2" data-name="Layer 2" viewBox="0 0 362.16 166.83"><defs><style>      .cls-1 {        fill: url(#linear-gradient-8);      }      .cls-2 {        fill: url(#linear-gradient-7);      }      .cls-3 {        fill: url(#linear-gradient-5);      }      .cls-4 {        fill: url(#linear-gradient-6);      }      .cls-5 {        fill: url(#linear-gradient-9);      }      .cls-6 {        fill: url(#linear-gradient-4);      }      .cls-7 {        fill: url(#linear-gradient-3);      }      .cls-8 {        fill: url(#linear-gradient-2);      }      .cls-9 {        fill: url(#linear-gradient);      }      .cls-10 {        fill: url(#linear-gradient-10);      }      .cls-11 {        fill: url(#linear-gradient-11);      }      .cls-12 {        fill: url(#linear-gradient-12);      }      .cls-13 {        fill: url(#linear-gradient-13);      }      .cls-14 {        fill: url(#linear-gradient-19);      }      .cls-15 {        fill: url(#linear-gradient-14);      }      .cls-16 {        fill: url(#linear-gradient-15);      }      .cls-17 {        fill: url(#linear-gradient-16);      }      .cls-18 {        fill: url(#linear-gradient-17);      }      .cls-19 {        fill: url(#linear-gradient-18);      }    </style><linearGradient id="linear-gradient" x1="-18.33" y1="141.5" x2="86.55" y2="9.1" gradientTransform="translate(32.74 -13.13) rotate(-.41)" gradientUnits="userSpaceOnUse"><stop offset="0" stop-color="#405aa8"></stop><stop offset=".2" stop-color="#6d57a3"></stop><stop offset=".48" stop-color="#ae55a1"></stop><stop offset=".97" stop-color="#fdbd6b"></stop><stop offset="1" stop-color="#221f1f"></stop></linearGradient><linearGradient id="linear-gradient-2" x1="-17.9" y1="131.52" x2="78.82" y2="9.42" gradientTransform="translate(32.74 -13.13) rotate(-.41)" gradientUnits="userSpaceOnUse"><stop offset="0" stop-color="#405aa8"></stop><stop offset=".48" stop-color="#ae55a1"></stop><stop offset=".97" stop-color="#fdbd6b"></stop><stop offset="1" stop-color="#221f1f"></stop></linearGradient><linearGradient id="linear-gradient-3" x1="-1.43" y1="167.44" x2="113.24" y2="22.68" xlink:href="#linear-gradient-2"></linearGradient><linearGradient id="linear-gradient-4" x1="-30.86" y1="149.83" x2="88.25" y2="-.52" xlink:href="#linear-gradient-2"></linearGradient><linearGradient id="linear-gradient-5" x1="-23.21" y1="153.05" x2="93.73" y2="5.43" xlink:href="#linear-gradient-2"></linearGradient><linearGradient id="linear-gradient-6" x1="-36.34" y1="151.55" x2="87.48" y2="-4.75" xlink:href="#linear-gradient-2"></linearGradient><linearGradient id="linear-gradient-7" x1="-12.88" y1="159.54" x2="102.74" y2="13.59" xlink:href="#linear-gradient-2"></linearGradient><linearGradient id="linear-gradient-8" x1="-13.38" y1="149.19" x2="94.47" y2="13.03" xlink:href="#linear-gradient-2"></linearGradient><linearGradient id="linear-gradient-9" x1="10.87" y1="176.9" x2="125.55" y2="32.14" xlink:href="#linear-gradient-2"></linearGradient><linearGradient id="linear-gradient-10" x1="38.48" y1="196.93" x2="151.72" y2="53.98" xlink:href="#linear-gradient-2"></linearGradient><linearGradient id="linear-gradient-11" x1="23.81" y1="186.17" x2="137.72" y2="42.37" xlink:href="#linear-gradient-2"></linearGradient><linearGradient id="linear-gradient-12" x1="14.06" y1="178.64" x2="128.12" y2="34.65" xlink:href="#linear-gradient-2"></linearGradient><linearGradient id="linear-gradient-13" x1="22.29" y1="182.62" x2="134.39" y2="41.11" xlink:href="#linear-gradient-2"></linearGradient><linearGradient id="linear-gradient-14" x1="6.61" y1="169.28" x2="117.84" y2="28.87" xlink:href="#linear-gradient-2"></linearGradient><linearGradient id="linear-gradient-15" x1="14.84" y1="175.8" x2="126.23" y2="35.18" xlink:href="#linear-gradient-2"></linearGradient><linearGradient id="linear-gradient-16" x1="29.23" y1="188.94" x2="141.97" y2="46.61" xlink:href="#linear-gradient-2"></linearGradient><linearGradient id="linear-gradient-17" x1="-6.9" y1="156.36" x2="102.57" y2="18.16" xlink:href="#linear-gradient-2"></linearGradient><linearGradient id="linear-gradient-18" x1=".51" y1="163.61" x2="111.07" y2="24.03" xlink:href="#linear-gradient-2"></linearGradient><linearGradient id="linear-gradient-19" x1="-32.99" y1="146.23" x2="81.24" y2="2.03" xlink:href="#linear-gradient-2"></linearGradient></defs><g id="Layer_1-2" data-name="Layer 1"><g id="Logo_Light" data-name="Logo Light"><g><path class="cls-9" d="M78.26,0c-3.84.44-7.62,1.11-11.31,1.99l49.08,58.11L78.26,0Z"></path><path class="cls-8" d="M57.1,4.95c-4.21,1.52-8.27,3.35-12.16,5.44l67.48,55.09L57.1,4.95Z"></path><path class="cls-7" d="M16.47,132.34c3.55,4.38,7.56,8.42,11.96,12.06l80.54-45.53-92.5,33.47Z"></path><path class="cls-6" d="M6.37,52.02c-2.27,5.33-3.97,10.95-5.05,16.79l106.97,13.68L6.37,52.02Z"></path><path class="cls-3" d="M.08,79.71c-.28,6.17.17,12.23,1.27,18.1l107.12-9.21L.08,79.71Z"></path><path class="cls-4" d="M20.07,30.03c-3.65,4.07-6.9,8.48-9.69,13.18l97.62,33.93L20.07,30.03Z"></path><path class="cls-2" d="M4.15,107.72c1.93,5.71,4.5,11.18,7.64,16.31l97.49-30.27L4.15,107.72Z"></path><path class="cls-1" d="M98.02.68c-.45-.04-.9-.09-1.35-.13-2.82-.23-5.62-.33-8.39-.31l32.5,56.33L98.02.68Z"></path><path class="cls-5" d="M34.32,149.26c4.15,3.04,8.61,5.75,13.33,8.08l64.76-52.22-78.08,44.14Z"></path><path class="cls-10" d="M80.98,166.51s.08,0,.11.01c3.57.29,7.1.38,10.59.27l22.89-44.73-33.6,44.45Z"></path><path class="cls-11" d="M57.73,161.57c4.12,1.45,8.4,2.62,12.8,3.48l44.75-54.25-57.56,50.77Z"></path><polygon class="cls-12" points="52.66 159.54 52.6 159.59 52.6 159.59 52.66 159.54"></polygon><path class="cls-13" d="M160.81,34.71c-.89-1.15-1.81-2.28-2.76-3.39l-8.36,26.12,11.12-22.73Z"></path><path class="cls-15" d="M137.76,52.42l3.38-36.25c-1.65-1.13-3.35-2.22-5.09-3.24l1.71,39.49Z"></path><path class="cls-16" d="M152.09,25.05c-1.23-1.17-2.5-2.32-3.8-3.42l-4.28,32.55,8.09-29.13Z"></path><path class="cls-17" d="M167.47,44.76c-.62-1.1-1.26-2.18-1.93-3.25l-11.02,20.37,12.94-17.12Z"></path><path class="cls-18" d="M115.65,4.09c-2.6-.77-5.26-1.43-7.96-1.98l18.77,51.47-10.8-49.49Z"></path><path class="cls-19" d="M132.71,52.24l-1.82-42.13c-2.04-1.03-4.14-1.99-6.28-2.88l8.1,45Z"></path><path class="cls-14" d="M38.66,14.66c-4.22,2.59-8.19,5.51-11.88,8.73l81.88,48.42L38.66,14.66Z"></path></g><g><path d="M137.84,97.27c-2.27.02-4.41-.32-6.34-1-1.93-.68-3.63-1.65-5.05-2.89-1.42-1.24-2.55-2.75-3.37-4.47-.81-1.72-1.23-3.66-1.25-5.75v-.08c-.01-1.98.37-3.87,1.14-5.6.77-1.74,1.86-3.28,3.22-4.58,1.36-1.3,3.03-2.33,4.95-3.08,1.92-.74,4.03-1.13,6.27-1.14,2.58-.02,4.84.32,6.72,1.01,1.81.67,3.5,1.61,5.03,2.79l-4.52,5.19c-1.04-.79-2.11-1.41-3.18-1.83-1.14-.45-2.47-.68-3.96-.67-1.1,0-2.13.22-3.06.64-.93.41-1.76.99-2.44,1.7-.69.71-1.23,1.55-1.63,2.5-.4.95-.59,1.98-.59,3.06v.08c0,1.13.22,2.2.63,3.17.41.97,1,1.82,1.74,2.5.74.69,1.63,1.23,2.62,1.62,1,.39,2.12.58,3.33.57,1.96-.01,3.59-.42,4.86-1.22l.09-.06-.03-3.69-5.83.04-.04-5.26,13.2-.09.09,12.25c-1.53,1.19-3.36,2.2-5.43,3.02-2.1.82-4.52,1.25-7.18,1.27Z"></path><rect x="153.38" y="67.9" width="7.66" height="28.68" transform="translate(-.58 1.11) rotate(-.41)"></rect><path d="M175.77,96.96c-1.79.01-3.47-.27-4.98-.83-1.51-.56-2.84-1.35-3.95-2.34-1.11-.99-1.98-2.16-2.6-3.48-.62-1.32-.93-2.75-.94-4.26v-.08c-.01-1.5.29-2.95.9-4.29.61-1.34,1.48-2.53,2.57-3.54,1.1-1.01,2.42-1.82,3.93-2.42,1.51-.6,3.19-.9,4.99-.92s3.47.27,4.98.85c1.51.57,2.84,1.36,3.95,2.34,1.11.98,1.98,2.14,2.6,3.46.62,1.32.93,2.75.94,4.25v.08c.01,1.51-.29,2.95-.9,4.29-.61,1.34-1.47,2.53-2.57,3.54-1.09,1.01-2.42,1.82-3.94,2.42-1.51.59-3.19.9-4.99.92ZM175.65,80.88c-.76,0-1.46.14-2.07.41-.61.26-1.14.63-1.56,1.09-.42.45-.75.99-.98,1.59-.23.6-.34,1.23-.34,1.89v.08c0,.68.14,1.33.39,1.93.25.6.61,1.13,1.07,1.58.46.45,1,.81,1.61,1.08.62.27,1.3.4,2.04.4s1.46-.14,2.07-.41c.61-.26,1.14-.63,1.56-1.09.42-.45.75-.99.98-1.59.23-.6.34-1.24.34-1.89v-.08c0-.68-.14-1.33-.39-1.92-.25-.6-.61-1.13-1.07-1.58-.46-.45-1-.81-1.61-1.08-.62-.27-1.31-.4-2.04-.4Z"></path><path d="M205.17,96.72c-.85,0-1.62-.07-2.29-.24-.67-.16-1.29-.38-1.84-.65-.55-.27-1.05-.59-1.48-.96-.45-.38-.86-.76-1.21-1.15l-.37-.4.02,2.96-7.66.05-.2-28.67,7.66-.05.03,10.75.37-.43c.39-.45.8-.87,1.24-1.26.43-.39.92-.74,1.46-1.04.54-.3,1.14-.55,1.81-.73.67-.19,1.42-.28,2.24-.29,1.32,0,2.59.24,3.79.73,1.2.49,2.27,1.22,3.18,2.14.92.93,1.66,2.08,2.2,3.42.55,1.35.83,2.89.84,4.58v.08c.01,1.72-.25,3.29-.78,4.66-.53,1.37-1.24,2.54-2.13,3.5-.88.95-1.93,1.69-3.12,2.2-1.19.51-2.45.78-3.77.79ZM202.56,80.57c-.67,0-1.31.14-1.89.39-.58.25-1.1.61-1.53,1.07-.43.46-.78,1-1.02,1.6-.24.61-.36,1.29-.36,2.02v.08c0,.74.14,1.42.39,2.04.25.61.6,1.16,1.04,1.61.44.45.96.81,1.55,1.05.59.25,1.23.37,1.9.36,1.37,0,2.54-.49,3.47-1.44.92-.94,1.39-2.18,1.38-3.69v-.08c-.01-1.48-.49-2.7-1.43-3.63-.94-.93-2.12-1.4-3.49-1.39Z"></path><path d="M223.58,96.59c-1.07,0-2.07-.13-2.98-.41-.9-.28-1.7-.69-2.37-1.22-.67-.53-1.2-1.2-1.59-1.99-.39-.79-.59-1.73-.59-2.78v-.08c0-1.08.2-2.04.61-2.86.41-.82,1-1.51,1.74-2.05.75-.55,1.67-.97,2.73-1.26,1.07-.29,2.29-.45,3.62-.46,1.05,0,2.07.07,3.03.23.96.16,1.77.35,2.4.55l.28.09v-.64c-.01-1.17-.42-2.09-1.22-2.73-.79-.63-2-.95-3.59-.94-1.22,0-2.34.13-3.34.35-.93.21-1.87.49-2.81.83l-1.57-4.95c1.23-.48,2.54-.87,3.91-1.17,1.43-.31,3.14-.47,5.09-.49,2.02-.01,3.76.2,5.16.63,1.39.43,2.54,1.06,3.42,1.88.85.77,1.47,1.71,1.85,2.79.38,1.1.58,2.41.59,3.9l.09,12.19-7.53.05-.02-2.55-.36.38c-.76.81-1.68,1.46-2.73,1.95-1.05.48-2.33.73-3.81.74ZM227.23,86.73c-1.23,0-2.19.28-2.85.8-.68.53-1.02,1.24-1.01,2.09v.08c0,.8.31,1.44.89,1.88.57.43,1.3.65,2.17.65,1.23,0,2.25-.36,3.01-1.03.77-.68,1.16-1.6,1.15-2.74v-1.12s-.13-.05-.13-.05c-.41-.16-.9-.3-1.46-.4-.57-.1-1.16-.15-1.76-.15Z"></path><rect x="240.93" y="67.28" width="7.66" height="28.68" transform="translate(-.57 1.73) rotate(-.41)"></rect><polygon points="123.18 128.28 122.98 100.8 146.24 100.63 146.29 107.01 130.81 107.12 130.85 112.21 144.84 112.11 144.88 118.17 130.89 118.27 130.96 128.22 123.18 128.28"></polygon><path d="M148.42,128.1l-.15-21.15,7.66-.05.03,4.14.4.07c.62-1.43,1.49-2.59,2.58-3.45.98-.78,2.31-1.18,3.95-1.19.09,0,.18,0,.26,0l.05,7.58h-.47c-2.16.02-3.85.64-5,1.85-1.15,1.21-1.72,3.11-1.71,5.64l.05,6.49-7.66.05Z"></path><path d="M175.95,128.42c-1.77.01-3.41-.25-4.88-.77-1.47-.52-2.75-1.26-3.82-2.2-1.07-.94-1.91-2.09-2.51-3.44-.6-1.34-.91-2.86-.92-4.5v-.08c-.01-1.53.26-2.99.8-4.34.54-1.34,1.32-2.53,2.32-3.54,1-1.01,2.2-1.81,3.57-2.39,1.37-.58,2.91-.88,4.56-.89,1.93-.01,3.63.29,5.06.9,1.42.61,2.61,1.45,3.54,2.49.93,1.04,1.64,2.27,2.1,3.66.47,1.39.71,2.89.72,4.46v.76c0,.2,0,.4-.02.6l-15.38.11.07.24c.33,1.23.95,2.16,1.85,2.77.89.6,2.01.9,3.32.89.99,0,1.9-.19,2.73-.55.78-.34,1.56-.88,2.35-1.6l4.16,3.2c-1.05,1.24-2.35,2.25-3.86,3.01-1.58.79-3.51,1.2-5.75,1.21ZM175.15,111.46c-1.13,0-2.06.39-2.77,1.14-.7.73-1.16,1.73-1.38,2.95l-.04.23,8.43-.06-.03-.22c-.15-1.23-.61-2.22-1.34-2.95-.75-.74-1.71-1.1-2.87-1.1Z"></path><path d="M199.83,128.25c-1.77.01-3.41-.25-4.88-.77-1.47-.52-2.75-1.26-3.82-2.2-1.07-.94-1.91-2.09-2.51-3.44-.6-1.34-.91-2.86-.92-4.5v-.08c-.01-1.53.26-2.99.8-4.34.54-1.34,1.32-2.53,2.32-3.54,1-1.01,2.2-1.81,3.57-2.39,1.37-.58,2.91-.88,4.56-.89,1.93-.01,3.63.29,5.05.9,1.42.61,2.61,1.45,3.54,2.49.93,1.04,1.64,2.27,2.1,3.66.47,1.39.71,2.89.72,4.46v.76c0,.2,0,.4-.02.6l-15.38.11.07.24c.33,1.23.95,2.16,1.85,2.77.89.6,2.01.9,3.32.89.99,0,1.9-.19,2.73-.55.78-.34,1.57-.88,2.35-1.6l4.16,3.2c-1.04,1.24-2.34,2.25-3.86,3.01-1.58.79-3.51,1.2-5.75,1.21ZM199.04,111.29c-1.13,0-2.06.39-2.77,1.14-.7.73-1.16,1.73-1.38,2.95l-.04.23,8.43-.06-.03-.22c-.15-1.23-.61-2.22-1.34-2.95-.75-.74-1.71-1.1-2.87-1.1Z"></path><rect x="212.66" y="98.94" width="7.66" height="28.67" transform="translate(-.8 1.53) rotate(-.41)"></rect><path d="M229.93,128c-1.07,0-2.07-.13-2.98-.41-.9-.28-1.7-.69-2.37-1.22-.67-.53-1.2-1.2-1.59-1.99-.39-.79-.59-1.73-.59-2.78v-.08c0-1.08.2-2.05.61-2.86.41-.82,1-1.51,1.74-2.05.74-.54,1.66-.97,2.73-1.26,1.08-.29,2.3-.45,3.62-.46,1.05,0,2.07.07,3.03.24.95.16,1.76.35,2.41.55l.28.09v-.63c-.01-1.17-.42-2.09-1.22-2.73-.79-.63-1.99-.95-3.59-.94-1.22,0-2.34.12-3.34.35-.92.2-1.86.48-2.81.83l-1.57-4.95c1.23-.48,2.54-.87,3.91-1.16,1.43-.31,3.15-.48,5.09-.49,2.02-.01,3.76.2,5.16.63,1.39.43,2.54,1.06,3.42,1.88.85.77,1.47,1.71,1.85,2.79.38,1.1.58,2.41.59,3.9l.09,12.19-7.53.05-.02-2.54-.36.38c-.76.81-1.68,1.46-2.73,1.95-1.05.48-2.33.73-3.81.74ZM233.58,118.14c-1.23,0-2.19.28-2.85.8-.68.53-1.02,1.24-1.01,2.09v.08c0,.8.31,1.43.89,1.88.57.44,1.3.65,2.17.65,1.23,0,2.24-.36,3.01-1.03.77-.68,1.16-1.6,1.15-2.74v-1.13s-.14-.05-.14-.05c-.41-.16-.9-.29-1.46-.4s-1.15-.15-1.76-.15Z"></path><path d="M261.8,127.3l-.08-11.47c0-1.24-.33-2.19-.95-2.83-.63-.65-1.46-.97-2.46-.96s-1.88.34-2.54.99c-.66.65-.99,1.61-.98,2.85l.08,11.47-7.66.05-.15-21.15,7.66-.05.02,3.42.37-.47c.35-.45.75-.88,1.18-1.3.43-.41.92-.78,1.46-1.09.54-.31,1.14-.57,1.79-.77.64-.2,1.37-.3,2.15-.3,2.39-.02,4.28.66,5.62,2.01,1.34,1.35,2.03,3.26,2.05,5.67l.1,13.9-7.66.05Z"></path><path d="M283.16,127.66c-1.68.01-3.26-.27-4.7-.85-1.44-.57-2.69-1.36-3.74-2.34-1.04-.98-1.87-2.15-2.47-3.48-.6-1.33-.91-2.76-.92-4.24v-.08c-.01-1.48.28-2.91.86-4.25.58-1.34,1.41-2.53,2.45-3.54,1.04-1.01,2.31-1.82,3.78-2.41,1.47-.6,3.11-.9,4.88-.92,2.32-.02,4.28.4,5.82,1.25,1.49.82,2.73,1.91,3.7,3.26l-5.1,3.63c-.55-.66-1.14-1.18-1.76-1.55-.68-.41-1.55-.62-2.57-.61-.67,0-1.31.14-1.89.41-.57.27-1.07.63-1.48,1.09-.41.46-.73.99-.96,1.58-.23.59-.34,1.24-.34,1.92v.08c0,.71.13,1.38.37,1.99.24.62.57,1.16.98,1.61.42.46.93.82,1.51,1.08.59.26,1.24.39,1.95.38,1,0,1.85-.22,2.54-.65.63-.38,1.26-.91,1.87-1.55l5.08,3.41c-1.02,1.39-2.3,2.53-3.81,3.39-1.56.89-3.6,1.35-6.06,1.37Z"></path><path d="M305.82,127.5c-1.77.01-3.41-.25-4.88-.77-1.47-.52-2.75-1.26-3.82-2.2-1.06-.94-1.91-2.09-2.51-3.44-.6-1.35-.91-2.86-.92-4.5v-.08c-.01-1.53.26-2.99.8-4.34.54-1.34,1.32-2.53,2.32-3.54,1-1.01,2.2-1.81,3.57-2.39,1.37-.58,2.91-.88,4.56-.89,1.93-.01,3.63.29,5.05.9,1.42.61,2.61,1.45,3.54,2.49.93,1.04,1.64,2.27,2.1,3.66.47,1.39.71,2.89.72,4.46v.76c0,.2,0,.4-.01.6l-15.38.11.07.24c.33,1.23.95,2.16,1.85,2.77.89.6,2.01.9,3.32.89.99,0,1.9-.19,2.73-.55.78-.34,1.57-.88,2.35-1.6l4.16,3.2c-1.04,1.24-2.34,2.25-3.86,3.01-1.58.79-3.51,1.2-5.75,1.21ZM305.02,110.55c-1.13,0-2.06.39-2.77,1.14-.7.73-1.16,1.73-1.38,2.95l-.04.23,8.43-.06-.03-.22c-.15-1.23-.61-2.22-1.34-2.95-.75-.74-1.71-1.1-2.87-1.1Z"></path><path d="M318.58,126.89l-.15-21.15,7.66-.05.03,4.14.4.07c.62-1.43,1.49-2.59,2.58-3.45.98-.78,2.31-1.18,3.95-1.19.09,0,.18,0,.26,0l.05,7.58h-.47c-2.17.02-3.85.64-5,1.85-1.15,1.21-1.72,3.11-1.71,5.64l.05,6.49-7.66.05Z"></path><path d="M343.87,127.19c-1.92.01-3.8-.23-5.61-.73-1.75-.48-3.41-1.23-4.95-2.24l2.76-4.27c1.29.77,2.61,1.35,3.92,1.74,1.38.41,2.69.61,3.89.6,1.49-.01,2.24-.47,2.23-1.37v-.08c0-.51-.36-.9-1.07-1.17-.63-.24-1.54-.51-2.78-.82-1.11-.25-2.17-.56-3.16-.91-.96-.34-1.82-.77-2.54-1.27-.71-.49-1.28-1.1-1.69-1.81-.41-.71-.62-1.6-.63-2.65v-.08c0-1.1.21-2.1.66-2.96.44-.86,1.06-1.59,1.85-2.17.79-.59,1.74-1.04,2.82-1.36,1.08-.32,2.29-.49,3.59-.49,1.66-.01,3.32.2,4.94.61,1.54.4,2.96.97,4.23,1.7l-2.52,4.46c-1.13-.56-2.3-1.02-3.46-1.35-1.23-.35-2.32-.53-3.24-.52-.67,0-1.16.12-1.51.34-.37.24-.55.54-.55.9v.08c0,.51.37.91,1.09,1.19.64.25,1.56.54,2.8.88,1.13.29,2.19.6,3.16.95.96.34,1.82.77,2.54,1.27.71.49,1.27,1.1,1.69,1.82.41.71.62,1.57.63,2.57v.08c0,1.16-.2,2.18-.63,3.05-.43.86-1.05,1.6-1.83,2.19-.79.6-1.76,1.06-2.88,1.36-1.13.31-2.39.47-3.75.48Z"></path><polygon points="123.4 159.73 123.21 132.25 146.46 132.09 146.51 138.46 131.04 138.57 131.07 143.67 145.06 143.57 145.11 149.62 131.11 149.72 131.18 159.68 123.4 159.73"></polygon><path d="M159.76,159.99c-1.77.01-3.41-.25-4.88-.77-1.46-.52-2.75-1.26-3.82-2.2-1.07-.94-1.91-2.09-2.51-3.44-.6-1.34-.91-2.86-.92-4.5v-.08c-.01-1.53.26-2.99.8-4.33.54-1.34,1.32-2.53,2.32-3.54,1-1,2.2-1.81,3.57-2.39s2.91-.88,4.56-.89c1.93-.01,3.63.29,5.05.9,1.42.61,2.61,1.45,3.54,2.49.93,1.04,1.64,2.27,2.1,3.66.47,1.39.71,2.89.72,4.46v.76c0,.2,0,.4-.02.6l-15.38.11.07.24c.33,1.23.95,2.17,1.85,2.77.9.6,2.01.9,3.32.89.99,0,1.9-.19,2.73-.55.77-.34,1.56-.88,2.34-1.6l4.16,3.2c-1.05,1.24-2.35,2.25-3.86,3.01-1.58.79-3.51,1.2-5.75,1.21ZM158.97,143.04c-1.13,0-2.06.39-2.77,1.14-.7.73-1.16,1.73-1.38,2.95l-.04.23,8.43-.06-.03-.22c-.15-1.23-.61-2.22-1.34-2.95-.75-.74-1.71-1.1-2.86-1.1Z"></path><path d="M181.41,159.8c-1.92.01-3.8-.23-5.61-.73-1.74-.48-3.41-1.23-4.95-2.24l2.76-4.27c1.28.77,2.6,1.35,3.92,1.74,1.38.41,2.69.61,3.89.6,1.49-.01,2.24-.47,2.23-1.37v-.08c0-.51-.36-.9-1.07-1.17-.63-.24-1.57-.52-2.78-.82-1.12-.26-2.18-.56-3.16-.91-.97-.34-1.82-.77-2.54-1.27-.71-.49-1.28-1.1-1.69-1.81-.41-.71-.62-1.6-.63-2.65v-.08c0-1.11.21-2.1.66-2.96.44-.86,1.06-1.59,1.85-2.17.79-.59,1.74-1.04,2.82-1.36,1.09-.32,2.29-.49,3.59-.5,1.67-.01,3.33.2,4.94.61,1.54.4,2.97.98,4.23,1.7l-2.52,4.46c-1.14-.56-2.3-1.02-3.46-1.35-1.23-.35-2.32-.53-3.24-.52-.67,0-1.16.12-1.51.34-.37.24-.55.54-.55.9v.08c0,.51.37.91,1.09,1.19.65.25,1.59.55,2.8.88,1.12.28,2.18.6,3.16.95.97.34,1.82.77,2.54,1.27.71.49,1.28,1.1,1.69,1.81.41.71.62,1.57.63,2.57v.08c0,1.16-.2,2.19-.63,3.05-.43.86-1.05,1.6-1.83,2.19-.79.6-1.76,1.06-2.88,1.36-1.14.31-2.4.47-3.75.48Z"></path><path d="M201.49,159.62c-2.38.02-4.25-.5-5.57-1.54-1.31-1.04-1.99-2.83-2-5.33l-.06-8.96-2.71.02-.04-5.7,2.71-.02-.04-5.45,7.66-.05.04,5.45,5.33-.04.04,5.7-5.33.04.05,7.48c0,.82.22,1.43.63,1.79.41.36,1.01.55,1.8.54.55,0,1.1-.08,1.62-.22.41-.11.82-.25,1.21-.41l.04,5.51c-.69.34-1.47.63-2.33.84-.91.23-1.93.34-3.03.35Z"></path><path d="M209.26,159.13l-.15-21.15,7.66-.05.15,21.15-7.66.05ZM208.93,135.63l-.04-5.18,8-.06.04,5.18-8,.06Z"></path><polygon points="227.42 159.16 218.3 137.91 226.3 137.86 230.94 150.84 235.39 137.79 243.26 137.74 234.45 159.11 227.42 159.16"></polygon><path d="M251.17,159.31c-1.07,0-2.07-.13-2.98-.41-.9-.28-1.7-.69-2.37-1.22-.67-.53-1.2-1.2-1.59-1.99-.39-.79-.59-1.73-.59-2.78v-.08c0-1.08.2-2.04.61-2.86.41-.82,1-1.51,1.74-2.05.75-.55,1.67-.97,2.73-1.26,1.07-.29,2.29-.45,3.62-.46,1.05,0,2.07.07,3.03.23.96.16,1.77.35,2.41.55l.28.09v-.64c-.01-1.17-.42-2.09-1.22-2.73-.79-.63-2-.95-3.59-.94-1.22,0-2.35.13-3.34.35-.92.21-1.87.48-2.81.83l-1.57-4.95c1.23-.48,2.54-.87,3.91-1.17,1.43-.31,3.14-.47,5.09-.49,2.02-.01,3.76.2,5.16.63,1.39.43,2.54,1.06,3.42,1.88.85.77,1.47,1.71,1.85,2.79.38,1.1.58,2.41.59,3.9l.09,12.19-7.53.05-.02-2.55-.36.38c-.76.81-1.68,1.46-2.73,1.95-1.05.48-2.33.73-3.82.74ZM254.82,149.45c-1.23,0-2.19.28-2.85.8-.68.53-1.02,1.24-1.01,2.09v.08c0,.8.31,1.43.89,1.88.57.43,1.3.65,2.17.65,1.23,0,2.25-.36,3.01-1.03.77-.68,1.16-1.6,1.15-2.74v-1.12s-.13-.05-.13-.05c-.41-.16-.9-.3-1.46-.4-.57-.1-1.16-.15-1.76-.15Z"></path><rect x="268.52" y="130.06" width="7.66" height="28.68" transform="translate(-1.01 1.93) rotate(-.41)"></rect><path d="M283.73,158.66l-.02-3.36,8.8-6.42c1.25-.93,2.11-1.72,2.65-2.42.61-.8.92-1.67.91-2.6,0-1.03-.39-1.86-1.14-2.48-.71-.58-1.62-.87-2.71-.87-1.04,0-2.03.31-2.94.91-.62.41-1.31.99-2.05,1.74l-3.05-2.35c.41-.46.83-.89,1.25-1.28.61-.57,1.28-1.05,1.98-1.43.69-.38,1.48-.67,2.34-.88.87-.21,1.87-.32,2.97-.33,1.22,0,2.34.15,3.35.47.99.32,1.85.76,2.55,1.31.68.54,1.22,1.21,1.61,1.99.39.78.59,1.65.59,2.59,0,.88-.09,1.62-.31,2.26-.21.62-.52,1.22-.94,1.76-.44.57-.99,1.13-1.63,1.66-.68.56-1.47,1.15-2.35,1.76l-6.98,4.67,12.54-.09.02,3.25-17.44.12Z"></path><path d="M313.11,158.45c-1.56.01-2.98-.26-4.21-.8-1.24-.54-2.31-1.3-3.17-2.26-.87-.97-1.56-2.12-2.04-3.42-.49-1.32-.74-2.74-.75-4.23s.22-2.96.71-4.31c.47-1.32,1.16-2.49,2.03-3.47.86-.97,1.93-1.75,3.16-2.32,1.23-.57,2.64-.86,4.2-.87s2.97.26,4.19.8c1.24.55,2.3,1.31,3.17,2.26.88.97,1.58,2.12,2.06,3.42.49,1.32.74,2.74.75,4.23s-.21,2.96-.69,4.32c-.46,1.32-1.14,2.48-2.02,3.46-.87.97-1.94,1.76-3.18,2.33-1.23.57-2.64.86-4.2.87ZM312.98,140.39c-.86,0-1.64.21-2.34.61-.67.38-1.24.91-1.71,1.57-.45.63-.8,1.39-1.03,2.26-.22.84-.33,1.76-.32,2.75,0,1.05.13,1.98.38,2.83.25.87.62,1.63,1.07,2.27.48.67,1.08,1.2,1.77,1.57.71.39,1.5.58,2.36.57s1.65-.21,2.35-.61c.69-.38,1.27-.93,1.74-1.61.43-.64.77-1.39,1-2.24.22-.82.33-1.74.32-2.74,0-1.05-.13-1.97-.38-2.82-.25-.86-.61-1.61-1.07-2.25-.48-.67-1.07-1.2-1.75-1.58-.72-.4-1.52-.6-2.37-.6Z"></path><path d="M324.65,158.37l-.02-3.36,8.79-6.42c1.25-.92,2.11-1.72,2.65-2.42.61-.8.92-1.67.91-2.6,0-1.03-.39-1.86-1.14-2.48-.71-.58-1.62-.87-2.71-.87s-2.03.31-2.95.91c-.62.41-1.31.99-2.05,1.74l-3.05-2.35c.41-.46.83-.89,1.25-1.28.61-.56,1.28-1.04,1.98-1.43.69-.38,1.48-.67,2.34-.88.87-.21,1.87-.32,2.97-.33,1.22,0,2.34.15,3.35.47.99.32,1.85.76,2.55,1.31.68.54,1.22,1.21,1.61,1.99.39.78.59,1.65.59,2.59,0,.88-.09,1.62-.31,2.26-.21.62-.52,1.22-.94,1.76-.44.57-.99,1.13-1.63,1.66-.68.56-1.47,1.15-2.35,1.76l-6.98,4.67,12.54-.09.02,3.25-17.44.12Z"></path><path d="M353.46,158.17c-1.62.01-2.97-.19-4.03-.59-1.06-.4-2-.99-2.8-1.73-.81-.76-1.48-1.77-1.99-3.01-.51-1.26-.78-2.94-.8-4.98-.01-1.76.2-3.4.63-4.85.42-1.42,1.07-2.67,1.93-3.71.84-1.02,1.92-1.84,3.2-2.43,1.28-.59,2.82-.9,4.58-.91,1.61-.01,3.01.18,4.16.56.88.3,1.76.71,2.62,1.22l-2.02,2.92c-.52-.3-1.04-.56-1.56-.78-.91-.37-1.94-.56-3.07-.55-1.8.01-3.2.62-4.14,1.8-.85,1.07-1.37,2.44-1.54,4.07l-.24,2.3,1.95-1.4c.6-.43,1.28-.82,2.05-1.16.69-.31,1.58-.47,2.64-.47.96,0,1.89.13,2.76.41.86.27,1.62.67,2.25,1.19.63.51,1.14,1.16,1.53,1.94.38.77.58,1.67.59,2.67,0,1.21-.2,2.25-.65,3.15-.45.9-1.06,1.68-1.82,2.31-.77.64-1.7,1.14-2.76,1.49-1.08.36-2.25.54-3.47.55ZM353.03,147.08c-1.37,0-2.47.4-3.28,1.17-.8.77-1.2,1.73-1.19,2.84,0,1.18.42,2.14,1.27,2.93.83.78,1.95,1.17,3.33,1.16,1.38,0,2.48-.41,3.28-1.2.79-.78,1.19-1.74,1.19-2.86s-.44-2.15-1.27-2.92c-.83-.76-1.95-1.15-3.32-1.14Z"></path></g></g></g></svg>